<?xml version="1.0" encoding="utf-8"?>
<!-- Generator: Adobe Illustrator 22.0.1, SVG Export Plug-In . SVG Version: 6.00 Build 0)  -->
<svg version="1.1" id="Layer_1" xmlns="http://www.w3.org/2000/svg" xmlns:xlink="http://www.w3.org/1999/xlink" x="0px" y="0px"
	 viewBox="0 0 640 480" enable-background="new 0 0 640 480" xml:space="preserve">
<g>
	<path fill="#020203" d="M489.3,460.8H150.7c-28.4,0-51.5-23.1-51.5-51.5V70.7c0-28.4,23.1-51.5,51.5-51.5h338.6
		c28.4,0,51.5,23.1,51.5,51.5v338.6C540.8,437.7,517.7,460.8,489.3,460.8"/>
	<path fill="none" stroke="#FFFFFF" stroke-width="0.5159" stroke-miterlimit="10" d="M489.3,460.8H150.7
		c-28.4,0-51.5-23.1-51.5-51.5V70.7c0-28.4,23.1-51.5,51.5-51.5h338.6c28.4,0,51.5,23.1,51.5,51.5v338.6
		C540.8,437.7,517.7,460.8,489.3,460.8z"/>
	<path fill="#FFFFFF" d="M167,96.1l118.7,158.7l-119.4,129h26.9l104.6-113l84.5,113h91.5L348.3,216.2L459.5,96.1h-26.9l-96.3,104
		l-77.8-104H167z M206.6,115.9h42l185.6,248.1h-42L206.6,115.9z"/>
</g>
<rect x="79.7" y="2.8" fill="none" width="480.7" height="474.3"/>
</svg>
